<?xml version="1.0" encoding="UTF-8"?>
<svg version="1.1" xmlns="http://www.w3.org/2000/svg" width="128" height="128">
<path d="M0 0 C1.4530957 -0.04350586 1.4530957 -0.04350586 2.93554688 -0.08789062 C9.23448825 -0.14325657 14.17759072 0.45777029 19.3125 4.3125 C21.859375 7.16796875 21.859375 7.16796875 24.0625 10.5 C24.90085451 11.73580407 25.73940574 12.9714747 26.578125 14.20703125 C27.23264648 15.19243896 27.23264648 15.19243896 27.90039062 16.19775391 C30.48314882 20.0656397 33.14906079 23.87496096 35.8125 27.6875 C36.3290918 28.44313232 36.84568359 29.19876465 37.37792969 29.97729492 C38.10351074 31.021073 38.10351074 31.021073 38.84375 32.0859375 C39.27236328 32.70903809 39.70097656 33.33213867 40.14257812 33.97412109 C40.52865234 34.41578613 40.91472656 34.85745117 41.3125 35.3125 C41.9725 35.3125 42.6325 35.3125 43.3125 35.3125 C44.79512084 33.58785692 44.79512084 33.58785692 46.2890625 31.32421875 C47.16570557 30.05384766 47.16570557 30.05384766 48.06005859 28.7578125 C48.67961426 27.84773438 49.29916992 26.93765625 49.9375 26 C51.21335084 24.16002391 52.48939119 22.32017922 53.765625 20.48046875 C55.77777263 17.55989875 57.77306379 14.63067411 59.734375 11.67578125 C60.70117188 10.25845703 60.70117188 10.25845703 61.6875 8.8125 C62.21085937 8.0184375 62.73421875 7.224375 63.2734375 6.40625 C67.67560738 1.88601426 72.43385791 0.12203143 78.6953125 -0.18359375 C80.6094742 -0.18490662 82.52375649 -0.16503107 84.4375 -0.125 C85.88189453 -0.13563477 85.88189453 -0.13563477 87.35546875 -0.14648438 C92.68196799 -0.09886093 96.83203265 0.12313305 101.3125 3.3125 C104.94938529 7.84057032 104.74523904 12.05171386 104.71655273 17.59741211 C104.72341599 18.52484726 104.73027924 19.45228241 104.73735046 20.40782166 C104.75562767 23.46865213 104.75177957 26.52897049 104.74609375 29.58984375 C104.75065512 31.72066922 104.75596057 33.85149321 104.76197815 35.98231506 C104.77091109 40.44684834 104.76848399 44.91120275 104.75854492 49.37573242 C104.74705557 55.09346634 104.76726564 60.81058265 104.79646206 66.52823544 C104.81481919 70.92834894 104.81453253 75.32831431 104.80882454 79.7284565 C104.80867126 81.83635894 104.81472077 83.94427138 104.82711601 86.05213737 C104.84201453 89.00121539 104.8313569 91.94915079 104.81420898 94.89819336 C104.82387695 95.76643738 104.83354492 96.6346814 104.84350586 97.52923584 C104.77780135 102.93291876 103.90161034 106.01951699 100.3125 110.3125 C95.62027154 113.67100137 89.39068698 112.6406429 83.875 112.625 C82.74255859 112.64111328 81.61011719 112.65722656 80.44335938 112.67382812 C79.34958984 112.67447266 78.25582031 112.67511719 77.12890625 112.67578125 C76.13318604 112.67876221 75.13746582 112.68174316 74.11157227 112.68481445 C69.94625169 112.1307705 67.43969857 110.46550992 64.53198242 107.49121094 C62.96802453 104.69706474 62.8822524 102.64679415 62.80078125 99.453125 C62.76533203 98.33808594 62.72988281 97.22304687 62.69335938 96.07421875 C62.67080078 94.91535156 62.64824219 93.75648437 62.625 92.5625 C62.59083984 91.38816406 62.55667969 90.21382813 62.52148438 89.00390625 C62.43904827 86.10686611 62.36988189 83.21012702 62.3125 80.3125 C61.85979736 81.04569458 61.85979736 81.04569458 61.39794922 81.79370117 C60.00508472 84.03593158 58.59649534 86.26787397 57.1875 88.5 C56.713125 89.26892578 56.23875 90.03785156 55.75 90.83007812 C49.02930766 101.41062755 49.02930766 101.41062755 43.1875 102.828125 C38.46247123 102.15874592 35.94457627 100.69457979 32.96484375 96.765625 C29.31284655 91.34374736 25.77364019 85.85801572 22.3125 80.3125 C22.30839111 81.03840332 22.30428223 81.76430664 22.30004883 82.51220703 C22.2670251 85.82144916 22.19636974 89.12887184 22.125 92.4375 C22.11919922 93.57960938 22.11339844 94.72171875 22.10742188 95.8984375 C21.85871807 105.4044495 21.85871807 105.4044495 18.94921875 109.0546875 C13.79052004 113.4720621 7.96836118 112.53197086 1.5 112.5625 C0.41912109 112.583125 -0.66175781 112.60375 -1.77539062 112.625 C-11.93458651 112.67489169 -11.93458651 112.67489169 -16.6875 109.3125 C-18.72666627 106.2537506 -18.93965792 105.63323894 -18.96165466 102.18899536 C-18.97162979 101.35068176 -18.98160492 100.51236816 -18.99188232 99.64865112 C-18.992547 98.73221832 -18.99321167 97.81578552 -18.99389648 96.87158203 C-19.00222 95.90381836 -19.01054352 94.93605469 -19.01911926 93.93896484 C-19.04325843 90.73270674 -19.05199609 87.5266519 -19.05859375 84.3203125 C-19.06755689 82.09455299 -19.07667867 79.86879412 -19.08595276 77.64303589 C-19.10245582 72.97408584 -19.11014531 68.30520761 -19.11303711 63.63623047 C-19.11842309 57.65148647 -19.15610705 51.66741673 -19.20178127 45.68286324 C-19.23151307 41.08464081 -19.23875983 36.48658153 -19.23976326 31.88827133 C-19.24397303 29.68183172 -19.25643746 27.47539196 -19.27728081 25.26904678 C-19.30411473 22.18292812 -19.2993931 19.0983825 -19.28686523 16.01220703 C-19.30169952 15.09982269 -19.31653381 14.18743835 -19.33181763 13.24740601 C-19.28017207 8.7832478 -19.14536943 6.90554477 -16.33753967 3.26876831 C-11.22930027 -0.50215141 -6.1024959 0.05971131 0 0 Z " fill="#EC629E" transform="translate(21.6875,7.6875)"/>
<path d="M0 0 C1.4530957 -0.04350586 1.4530957 -0.04350586 2.93554688 -0.08789062 C9.23448825 -0.14325657 14.17759072 0.45777029 19.3125 4.3125 C21.859375 7.16796875 21.859375 7.16796875 24.0625 10.5 C24.90085451 11.73580407 25.73940574 12.9714747 26.578125 14.20703125 C27.23264648 15.19243896 27.23264648 15.19243896 27.90039062 16.19775391 C30.48314882 20.0656397 33.14906079 23.87496096 35.8125 27.6875 C36.3290918 28.44313232 36.84568359 29.19876465 37.37792969 29.97729492 C38.10351074 31.021073 38.10351074 31.021073 38.84375 32.0859375 C39.27236328 32.70903809 39.70097656 33.33213867 40.14257812 33.97412109 C40.52865234 34.41578613 40.91472656 34.85745117 41.3125 35.3125 C41.9725 35.3125 42.6325 35.3125 43.3125 35.3125 C44.79512084 33.58785692 44.79512084 33.58785692 46.2890625 31.32421875 C47.16570557 30.05384766 47.16570557 30.05384766 48.06005859 28.7578125 C48.67961426 27.84773438 49.29916992 26.93765625 49.9375 26 C51.21335084 24.16002391 52.48939119 22.32017922 53.765625 20.48046875 C55.77777263 17.55989875 57.77306379 14.63067411 59.734375 11.67578125 C60.70117188 10.25845703 60.70117188 10.25845703 61.6875 8.8125 C62.21085937 8.0184375 62.73421875 7.224375 63.2734375 6.40625 C67.67560738 1.88601426 72.43385791 0.12203143 78.6953125 -0.18359375 C80.6094742 -0.18490662 82.52375649 -0.16503107 84.4375 -0.125 C85.88189453 -0.13563477 85.88189453 -0.13563477 87.35546875 -0.14648438 C92.68196799 -0.09886093 96.83203265 0.12313305 101.3125 3.3125 C104.94938529 7.84057032 104.74523904 12.05171386 104.71655273 17.59741211 C104.72341599 18.52484726 104.73027924 19.45228241 104.73735046 20.40782166 C104.75562767 23.46865213 104.75177957 26.52897049 104.74609375 29.58984375 C104.75065512 31.72066922 104.75596057 33.85149321 104.76197815 35.98231506 C104.77091109 40.44684834 104.76848399 44.91120275 104.75854492 49.37573242 C104.74705557 55.09346634 104.76726564 60.81058265 104.79646206 66.52823544 C104.81481919 70.92834894 104.81453253 75.32831431 104.80882454 79.7284565 C104.80867126 81.83635894 104.81472077 83.94427138 104.82711601 86.05213737 C104.84201453 89.00121539 104.8313569 91.94915079 104.81420898 94.89819336 C104.82387695 95.76643738 104.83354492 96.6346814 104.84350586 97.52923584 C104.77780135 102.93291876 103.90161034 106.01951699 100.3125 110.3125 C95.62027154 113.67100137 89.39068698 112.6406429 83.875 112.625 C82.74255859 112.64111328 81.61011719 112.65722656 80.44335938 112.67382812 C79.34958984 112.67447266 78.25582031 112.67511719 77.12890625 112.67578125 C76.13318604 112.67876221 75.13746582 112.68174316 74.11157227 112.68481445 C69.94625169 112.1307705 67.43969857 110.46550992 64.53198242 107.49121094 C62.96802453 104.69706474 62.8822524 102.64679415 62.80078125 99.453125 C62.76533203 98.33808594 62.72988281 97.22304687 62.69335938 96.07421875 C62.67080078 94.91535156 62.64824219 93.75648437 62.625 92.5625 C62.59083984 91.38816406 62.55667969 90.21382813 62.52148438 89.00390625 C62.43904827 86.10686611 62.36988189 83.21012702 62.3125 80.3125 C61.85979736 81.04569458 61.85979736 81.04569458 61.39794922 81.79370117 C60.00508472 84.03593158 58.59649534 86.26787397 57.1875 88.5 C56.713125 89.26892578 56.23875 90.03785156 55.75 90.83007812 C49.02930766 101.41062755 49.02930766 101.41062755 43.1875 102.828125 C38.46247123 102.15874592 35.94457627 100.69457979 32.96484375 96.765625 C29.31284655 91.34374736 25.77364019 85.85801572 22.3125 80.3125 C22.30839111 81.03840332 22.30428223 81.76430664 22.30004883 82.51220703 C22.2670251 85.82144916 22.19636974 89.12887184 22.125 92.4375 C22.11919922 93.57960938 22.11339844 94.72171875 22.10742188 95.8984375 C21.85871807 105.4044495 21.85871807 105.4044495 18.94921875 109.0546875 C13.79052004 113.4720621 7.96836118 112.53197086 1.5 112.5625 C0.41912109 112.583125 -0.66175781 112.60375 -1.77539062 112.625 C-11.93458651 112.67489169 -11.93458651 112.67489169 -16.6875 109.3125 C-18.72666627 106.2537506 -18.93965792 105.63323894 -18.96165466 102.18899536 C-18.97162979 101.35068176 -18.98160492 100.51236816 -18.99188232 99.64865112 C-18.992547 98.73221832 -18.99321167 97.81578552 -18.99389648 96.87158203 C-19.00222 95.90381836 -19.01054352 94.93605469 -19.01911926 93.93896484 C-19.04325843 90.73270674 -19.05199609 87.5266519 -19.05859375 84.3203125 C-19.06755689 82.09455299 -19.07667867 79.86879412 -19.08595276 77.64303589 C-19.10245582 72.97408584 -19.11014531 68.30520761 -19.11303711 63.63623047 C-19.11842309 57.65148647 -19.15610705 51.66741673 -19.20178127 45.68286324 C-19.23151307 41.08464081 -19.23875983 36.48658153 -19.23976326 31.88827133 C-19.24397303 29.68183172 -19.25643746 27.47539196 -19.27728081 25.26904678 C-19.30411473 22.18292812 -19.2993931 19.0983825 -19.28686523 16.01220703 C-19.30169952 15.09982269 -19.31653381 14.18743835 -19.33181763 13.24740601 C-19.28017207 8.7832478 -19.14536943 6.90554477 -16.33753967 3.26876831 C-11.22930027 -0.50215141 -6.1024959 0.05971131 0 0 Z M-11.6875 9.3125 C-11.78808243 12.22907629 -11.82365211 15.12200946 -11.81689453 18.0390625 C-11.81864685 18.95443787 -11.82039917 19.86981323 -11.82220459 20.81292725 C-11.82662461 23.85447049 -11.82368459 26.89595611 -11.8203125 29.9375 C-11.8209855 32.0411785 -11.82195548 34.14485692 -11.82321167 36.24853516 C-11.82468885 40.66374449 -11.82253345 45.07893363 -11.81787109 49.49414062 C-11.8121738 55.16742561 -11.8154527 60.84066329 -11.82144356 66.51394653 C-11.82504864 70.85978556 -11.82391083 75.20561328 -11.82131577 79.55145264 C-11.82064635 81.6439413 -11.82147543 83.73643097 -11.82379532 85.82891846 C-11.82632098 88.74795266 -11.82248248 91.66690912 -11.81689453 94.5859375 C-11.81891876 95.4597406 -11.82094299 96.3335437 -11.82302856 97.23382568 C-12.1886089 101.08326241 -12.1886089 101.08326241 -10.6875 104.3125 C-6.88161856 104.56458722 -3.06324544 104.49772344 0.75 104.5 C1.82572266 104.51224609 2.90144531 104.52449219 4.00976562 104.53710938 C5.03650391 104.53904297 6.06324219 104.54097656 7.12109375 104.54296875 C8.54119751 104.54913208 8.54119751 104.54913208 9.98999023 104.55541992 C12.50614344 104.53866506 12.50614344 104.53866506 14.3125 102.3125 C14.60401422 100.29240192 14.60401422 100.29240192 14.53955078 97.95458984 C14.53939972 97.05380707 14.53924866 96.15302429 14.53909302 95.22494507 C14.52360916 93.76394882 14.52360916 93.76394882 14.5078125 92.2734375 C14.50356766 90.77944931 14.50356766 90.77944931 14.49923706 89.25527954 C14.4880184 86.06589882 14.46291081 82.87679622 14.4375 79.6875 C14.42747238 77.52864988 14.41834615 75.36979537 14.41015625 73.2109375 C14.38807361 67.91136301 14.35457958 62.61195137 14.3125 57.3125 C17.47324169 58.79355665 18.95317927 59.80782507 20.72265625 62.84765625 C21.1498999 63.56711426 21.57714355 64.28657227 22.01733398 65.02783203 C22.46536377 65.80239746 22.91339355 66.57696289 23.375 67.375 C24.34484047 68.99960251 25.31623837 70.62327612 26.2890625 72.24609375 C27.03397949 73.49688721 27.03397949 73.49688721 27.79394531 74.77294922 C30.23547277 78.85603099 32.72014879 82.90860534 35.25 86.9375 C35.69802979 87.67750244 36.14605957 88.41750488 36.60766602 89.17993164 C38.00278256 91.45997227 38.00278256 91.45997227 40.3125 94.3125 C41.6325 94.3125 42.9525 94.3125 44.3125 94.3125 C45.90980398 92.71825063 45.90980398 92.71825063 47.1953125 90.5 C47.71818848 89.67862549 48.24106445 88.85725098 48.77978516 88.01098633 C49.32683105 87.12048584 49.87387695 86.22998535 50.4375 85.3125 C51.00645996 84.41362061 51.57541992 83.51474121 52.16162109 82.58862305 C54.9085299 78.23608338 57.59890255 73.84955742 60.28125 69.45703125 C60.73226074 68.72291016 61.18327148 67.98878906 61.64794922 67.23242188 C62.49223372 65.85266727 63.32758112 64.46739438 64.15283203 63.07617188 C66.98155825 58.42281392 66.98155825 58.42281392 70.3125 57.3125 C70.30805878 57.8718222 70.30361755 58.43114441 70.29904175 59.00741577 C70.25488851 64.81448824 70.22466706 70.62151325 70.20263672 76.42871094 C70.19256211 78.59767594 70.17890202 80.76662731 70.16162109 82.93554688 C70.13743677 86.04821126 70.12603168 89.16069651 70.1171875 92.2734375 C70.10686493 93.247435 70.09654236 94.2214325 70.08590698 95.22494507 C70.08575592 96.12572784 70.08560486 97.02651062 70.08544922 97.95458984 C70.081008 98.74956879 70.07656677 99.54454773 70.07199097 100.36361694 C70.13881697 102.54893491 70.13881697 102.54893491 72.3125 104.3125 C74.70490558 104.60685133 74.70490558 104.60685133 77.46875 104.54296875 C78.49097656 104.54103516 79.51320313 104.53910156 80.56640625 104.53710938 C81.63761719 104.52486328 82.70882812 104.51261719 83.8125 104.5 C85.41931641 104.4990332 85.41931641 104.4990332 87.05859375 104.49804688 C92.35366483 104.70665024 92.35366483 104.70665024 97.3125 103.3125 C97.3125 72.2925 97.3125 41.2725 97.3125 9.3125 C93.34048981 7.32649491 88.49334897 7.86545114 84.125 7.75 C83.09568359 7.68748047 82.06636719 7.62496094 81.00585938 7.56054688 C75.19172459 7.40428892 75.19172459 7.40428892 70.140625 9.9465332 C68.33240059 11.98006583 66.80188705 14.03732096 65.3125 16.3125 C64.66023438 17.21613281 64.00796875 18.11976562 63.3359375 19.05078125 C62.79195313 19.90027344 62.24796875 20.74976563 61.6875 21.625 C61.03007813 22.62660156 60.37265625 23.62820312 59.6953125 24.66015625 C58.37933098 26.67572233 57.06532671 28.69254634 55.75292969 30.71044922 C54.03618713 33.33689751 52.30053679 35.95010598 50.5625 38.5625 C50.00739746 39.42141846 49.45229492 40.28033691 48.88037109 41.1652832 C48.34750488 41.961521 47.81463867 42.75775879 47.265625 43.578125 C46.55647949 44.65755371 46.55647949 44.65755371 45.83300781 45.75878906 C45.33124023 46.27151367 44.82947266 46.78423828 44.3125 47.3125 C42.9925 47.3125 41.6725 47.3125 40.3125 47.3125 C38.54833984 45.42333984 38.54833984 45.42333984 36.7734375 42.7734375 C36.1148877 41.80623779 35.45633789 40.83903809 34.77783203 39.8425293 C34.08802246 38.80136963 33.39821289 37.76020996 32.6875 36.6875 C31.25581698 34.57641002 29.82352598 32.46573223 28.390625 30.35546875 C27.34745117 28.80545166 27.34745117 28.80545166 26.28320312 27.22412109 C23.72344733 23.44220242 21.09769203 19.71168342 18.4375 16 C17.67695312 14.93136719 16.91640625 13.86273438 16.1328125 12.76171875 C14.39093479 10.29378245 14.39093479 10.29378245 12.3125 8.3125 C9.90362338 8.0181504 9.90362338 8.0181504 7.12109375 8.08203125 C6.09435547 8.08396484 5.06761719 8.08589844 4.00976562 8.08789062 C2.39618164 8.10625977 2.39618164 8.10625977 0.75 8.125 C-0.32958984 8.12564453 -1.40917969 8.12628906 -2.52148438 8.12695312 C-7.45593777 7.68585626 -7.45593777 7.68585626 -11.6875 9.3125 Z " fill="#FCFCFC" transform="translate(21.6875,7.6875)"/>
<path d="M0 0 C7.81011285 0.19907655 7.81011285 0.19907655 11.63378906 2.38476562 C13.71568043 5.0348491 15.17219284 7.71991824 16.71582031 10.71679688 C18.00659146 12.66984851 19.35360968 14.57606972 20.70678711 16.48632812 C23.9977637 21.1342424 27.16700085 25.86512255 30.27832031 30.63476562 C30.67994385 31.24022217 31.08156738 31.84567871 31.49536133 32.46948242 C32.587999 34.11822959 33.66606221 35.77660869 34.74316406 37.43554688 C35.39414062 38.18835937 36.04511719 38.94117188 36.71582031 39.71679688 C38.03582031 39.71679688 39.35582031 39.71679688 40.71582031 39.71679688 C42.27576816 38.23731511 42.27576816 38.23731511 43.52832031 36.15820312 C44.04088379 35.38734375 44.55344727 34.61648437 45.08154297 33.82226562 C45.62085449 32.98308594 46.16016602 32.14390625 46.71582031 31.27929688 C47.86828149 29.54022999 49.02195521 27.8019661 50.17675781 26.06445312 C51.05412598 24.73244873 51.05412598 24.73244873 51.94921875 23.37353516 C54.67665076 19.27183324 57.50046296 15.24078329 60.34082031 11.21679688 C61.08525391 10.15054077 61.08525391 10.15054077 61.84472656 9.06274414 C62.31007813 8.40201904 62.77542969 7.74129395 63.25488281 7.06054688 C63.65916504 6.48498047 64.06344727 5.90941406 64.47998047 5.31640625 C67.94598833 0.83017877 67.94598833 0.83017877 71.13598633 0.36035156 C72.07112061 0.36969727 73.00625488 0.37904297 73.96972656 0.38867188 C75.49823242 0.39640625 75.49823242 0.39640625 77.05761719 0.40429688 C78.12044922 0.42492188 79.18328125 0.44554687 80.27832031 0.46679688 C81.34501953 0.47195313 82.41171875 0.47710937 83.51074219 0.48242188 C91.40709779 0.56243561 91.40709779 0.56243561 93.71582031 1.71679688 C93.71582031 32.73679688 93.71582031 63.75679688 93.71582031 95.71679688 C89.71282159 97.71829624 84.61665301 96.90164896 80.21582031 96.90429688 C79.14460938 96.91654297 78.07339844 96.92878906 76.96972656 96.94140625 C75.9475 96.94333984 74.92527344 96.94527344 73.87207031 96.94726562 C72.93169922 96.95137451 71.99132812 96.9554834 71.02246094 96.9597168 C68.71582031 96.71679688 68.71582031 96.71679688 66.71582031 94.71679688 C66.47531128 92.76791382 66.47531128 92.76791382 66.48876953 90.35888672 C66.48892059 89.45810394 66.48907166 88.55732117 66.48922729 87.62924194 C66.49954987 86.65524445 66.50987244 85.68124695 66.52050781 84.67773438 C66.52333771 83.68174225 66.5261676 82.68575012 66.52908325 81.65957642 C66.54030191 78.47019569 66.5654095 75.2810931 66.59082031 72.09179688 C66.60084794 69.93294676 66.60997416 67.77409225 66.61816406 65.61523438 C66.64024671 60.31565989 66.67374073 55.01624825 66.71582031 49.71679688 C63.34502359 50.84039578 63.13119099 51.20746471 61.43847656 54.11914062 C61.0131665 54.83666504 60.58785645 55.55418945 60.1496582 56.29345703 C59.6971167 57.07253418 59.2445752 57.85161133 58.77832031 58.65429688 C57.80180581 60.28739608 56.82254741 61.91885711 55.84082031 63.54882812 C55.33164063 64.39525879 54.82246094 65.24168945 54.29785156 66.11376953 C51.69213958 70.40113083 49.01083307 74.63431214 46.27832031 78.84179688 C45.78275635 79.6293335 45.28719238 80.41687012 44.77661133 81.22827148 C44.30408936 81.94893799 43.83156738 82.66960449 43.34472656 83.41210938 C42.93295166 84.05164551 42.52117676 84.69118164 42.09692383 85.35009766 C40.71582031 86.71679688 40.71582031 86.71679688 36.71582031 86.71679688 C35.11938477 84.91943359 35.11938477 84.91943359 33.57910156 82.39648438 C33.00587158 81.47440186 32.4326416 80.55231934 31.84204102 79.60229492 C31.24351318 78.60883057 30.64498535 77.61536621 30.02832031 76.59179688 C29.40981201 75.5938208 28.79130371 74.59584473 28.15405273 73.56762695 C26.32988233 70.62421416 24.52199057 67.67127776 22.71582031 64.71679688 C21.00086448 61.93678106 19.27043649 59.16734465 17.52832031 56.40429688 C16.85414062 55.31503906 16.17996094 54.22578125 15.48535156 53.10351562 C13.87170392 50.45001289 13.87170392 50.45001289 10.71582031 49.71679688 C10.72026154 50.27611908 10.72470276 50.83544128 10.72927856 51.41171265 C10.7734318 57.21878512 10.80365325 63.02581012 10.82568359 68.83300781 C10.8357582 71.00197282 10.84941829 73.17092419 10.86669922 75.33984375 C10.89088354 78.45250813 10.90228864 81.56499339 10.91113281 84.67773438 C10.92145538 85.65173187 10.93177795 86.62572937 10.94241333 87.62924194 C10.94256439 88.53002472 10.94271545 89.4308075 10.94287109 90.35888672 C10.94731232 91.15386566 10.95175354 91.9488446 10.95632935 92.76791382 C10.71582031 94.71679687 10.71582031 94.71679687 8.71582031 96.71679688 C6.39331055 96.9597168 6.39331055 96.9597168 3.52441406 96.94726562 C2.49767578 96.94533203 1.4709375 96.94339844 0.41308594 96.94140625 C-0.66263672 96.92916016 -1.73835938 96.91691406 -2.84667969 96.90429688 C-3.92626953 96.90365234 -5.00585938 96.90300781 -6.11816406 96.90234375 C-14.14403371 96.85694285 -14.14403371 96.85694285 -15.28417969 95.71679688 C-15.38476212 92.80022058 -15.42033179 89.90728742 -15.41357422 86.99023438 C-15.41532654 86.07485901 -15.41707886 85.15948364 -15.41888428 84.21636963 C-15.42330429 81.17482639 -15.42036428 78.13334076 -15.41699219 75.09179688 C-15.41766518 72.98811838 -15.41863517 70.88443995 -15.41989136 68.78076172 C-15.42136853 64.36555239 -15.41921314 59.95036324 -15.41455078 55.53515625 C-15.40885349 49.86187127 -15.41213239 44.18863359 -15.41812325 38.51535034 C-15.42172833 34.16951132 -15.42059052 29.8236836 -15.41799545 25.47784424 C-15.41732604 23.38535558 -15.41815511 21.2928659 -15.42047501 19.20037842 C-15.42300066 16.28134422 -15.41916217 13.36238775 -15.41357422 10.44335938 C-15.41559845 9.56955627 -15.41762268 8.69575317 -15.41970825 7.79547119 C-15.38368995 -2.30637549 -8.70106856 0.0791246 0 0 Z M-13.28417969 2.71679688 C-13.28417969 33.07679687 -13.28417969 63.43679687 -13.28417969 94.71679688 C-6.02417969 94.71679688 1.23582031 94.71679688 8.71582031 94.71679688 C9.04582031 79.53679687 9.37582031 64.35679688 9.71582031 48.71679688 C11.36582031 48.71679688 13.01582031 48.71679688 14.71582031 48.71679688 C16.50842923 50.77135393 17.81650588 52.59842157 19.21582031 54.90429688 C19.63089844 55.55470947 20.04597656 56.20512207 20.47363281 56.87524414 C21.91083451 59.14214616 23.31597732 61.42663923 24.71582031 63.71679688 C25.27527344 64.63138672 25.83472656 65.54597656 26.41113281 66.48828125 C26.99636719 67.44541016 27.58160156 68.40253906 28.18457031 69.38867188 C28.77044922 70.34362549 29.35632812 71.2985791 29.95996094 72.2824707 C31.12368692 74.18582286 32.27876348 76.09449238 33.42480469 78.00854492 C33.95396484 78.880354 34.483125 79.75216309 35.02832031 80.65039062 C35.49882813 81.43470459 35.96933594 82.21901855 36.45410156 83.02709961 C36.87046875 83.58469971 37.28683594 84.1422998 37.71582031 84.71679688 C38.37582031 84.71679688 39.03582031 84.71679688 39.71582031 84.71679688 C41.20271376 82.81186677 41.20271376 82.81186677 42.69238281 80.32617188 C43.56987183 78.92782104 43.56987183 78.92782104 44.46508789 77.5012207 C45.08407959 76.49986084 45.70307129 75.49850098 46.34082031 74.46679688 C47.60667616 72.4439907 48.87359654 70.42185028 50.14160156 68.40039062 C50.75471191 67.42054199 51.36782227 66.44069336 51.99951172 65.43115234 C54.69087679 61.17473743 57.50972427 57.01266809 60.36035156 52.86132812 C61.86370095 50.67241462 61.86370095 50.67241462 62.71582031 47.71679688 C64.36582031 48.04679687 66.01582031 48.37679687 67.71582031 48.71679688 C68.04582031 63.89679688 68.37582031 79.07679687 68.71582031 94.71679688 C76.30582031 94.71679688 83.89582031 94.71679688 91.71582031 94.71679688 C91.71582031 64.35679688 91.71582031 33.99679687 91.71582031 2.71679688 C84.45582031 2.71679688 77.19582031 2.71679688 69.71582031 2.71679688 C66.74352698 5.68909021 64.64965963 8.05926714 62.36035156 11.46289062 C61.74216553 12.37731934 61.12397949 13.29174805 60.48706055 14.23388672 C59.84067627 15.19762207 59.19429199 16.16135742 58.52832031 17.15429688 C57.8606665 18.1360791 57.1930127 19.11786133 56.50512695 20.12939453 C53.598456 24.40649906 50.71280587 28.68982662 47.94238281 33.05664062 C47.54688232 33.66644775 47.15138184 34.27625488 46.74389648 34.90454102 C45.72849392 36.47549404 44.73491511 38.06049395 43.74316406 39.64648438 C41.71582031 41.71679688 41.71582031 41.71679688 38.81347656 42.49023438 C34.12497662 41.31958748 32.73145941 38.41033668 30.21582031 34.46679688 C29.17725588 32.91828563 28.13817026 31.37012384 27.09863281 29.82226562 C26.5549707 28.99774902 26.01130859 28.17323242 25.45117188 27.32373047 C22.40953225 22.75442434 19.24314507 18.27258465 16.09082031 13.77929688 C15.48689453 12.90950195 14.88296875 12.03970703 14.26074219 11.14355469 C13.69677734 10.33370117 13.1328125 9.52384766 12.55175781 8.68945312 C12.05208496 7.97023682 11.55241211 7.25102051 11.03759766 6.51000977 C9.69865873 4.59987523 9.69865873 4.59987523 7.71582031 2.71679688 C0.78582031 2.71679688 -6.14417969 2.71679688 -13.28417969 2.71679688 Z " fill="#6D6768" transform="translate(25.2841796875,15.283203125)"/>
<path d="M0 0 C7.26 0 14.52 0 22 0 C22 14.52 22 29.04 22 44 C14.74 44 7.48 44 0 44 C0 29.48 0 14.96 0 0 Z " fill="#9B82BB" transform="translate(12,66)"/>
<path d="M0 0 C7.26 0 14.52 0 22 0 C22 14.52 22 29.04 22 44 C14.74 44 7.48 44 0 44 C0 29.48 0 14.96 0 0 Z " fill="#F68B6B" transform="translate(94,66)"/>
<path d="M0 0 C12.87 0 25.74 0 39 0 C35.45276685 6.50326078 32.09554975 12.64399543 27.9375 18.6875 C27.07054931 19.96281815 26.20465305 21.23885378 25.33984375 22.515625 C24.73245361 23.4118457 24.73245361 23.4118457 24.11279297 24.32617188 C22.67411623 26.49018411 21.33273505 28.70704728 20 30.9375 C19.34 31.948125 18.68 32.95875 18 34 C17.34 34 16.68 34 16 34 C14.41186523 31.82861328 14.41186523 31.82861328 12.55859375 28.8203125 C11.55989258 27.20962891 11.55989258 27.20962891 10.54101562 25.56640625 C9.83976366 24.41931979 9.13859272 23.2721838 8.4375 22.125 C7.73306146 20.98528152 7.02799111 19.84595329 6.32226562 18.70703125 C0 8.46631001 0 8.46631001 0 0 Z " fill="#ADDCDF" transform="translate(47,66)"/>
<path d="M0 0 C1.58206057 0.00667536 3.16410534 0.0186375 4.74609375 0.03515625 C5.55240234 0.03966797 6.35871094 0.04417969 7.18945312 0.04882812 C9.18753131 0.06065107 11.18557158 0.07858711 13.18359375 0.09765625 C13.18359375 0.75765625 13.18359375 1.41765625 13.18359375 2.09765625 C7.90359375 2.09765625 2.62359375 2.09765625 -2.81640625 2.09765625 C-2.81640625 32.45765625 -2.81640625 62.81765625 -2.81640625 94.09765625 C4.44359375 94.09765625 11.70359375 94.09765625 19.18359375 94.09765625 C19.18359375 79.24765625 19.18359375 64.39765625 19.18359375 49.09765625 C19.51359375 49.09765625 19.84359375 49.09765625 20.18359375 49.09765625 C20.20886377 55.63044411 20.22642667 62.16321946 20.23852539 68.69604492 C20.24356692 70.92033357 20.25039998 73.14461888 20.2590332 75.36889648 C20.27110673 78.55843934 20.27682371 81.74793854 20.28125 84.9375 C20.28641129 85.93853256 20.29157257 86.93956512 20.29689026 87.97093201 C20.29700356 89.3522506 20.29700356 89.3522506 20.29711914 90.76147461 C20.29933975 91.57643906 20.30156036 92.3914035 20.30384827 93.23106384 C20.18359375 95.09765625 20.18359375 95.09765625 19.18359375 96.09765625 C17.48800649 96.19697778 15.78833628 96.22845632 14.08984375 96.23046875 C13.05988281 96.23175781 12.02992187 96.23304687 10.96875 96.234375 C9.34259766 96.22857422 9.34259766 96.22857422 7.68359375 96.22265625 C6.59949219 96.22652344 5.51539063 96.23039062 4.3984375 96.234375 C3.36847656 96.23308594 2.33851562 96.23179688 1.27734375 96.23046875 C0.32537109 96.22934082 -0.62660156 96.22821289 -1.60742188 96.22705078 C-3.81640625 96.09765625 -3.81640625 96.09765625 -4.81640625 95.09765625 C-4.91698868 92.18107996 -4.95255836 89.28814679 -4.94580078 86.37109375 C-4.9475531 85.45571838 -4.94930542 84.54034302 -4.95111084 83.597229 C-4.95553086 80.55568576 -4.95259084 77.51420014 -4.94921875 74.47265625 C-4.94989175 72.36897775 -4.95086173 70.26529933 -4.95211792 68.16162109 C-4.9535951 63.74641176 -4.9514397 59.33122262 -4.94677734 54.91601562 C-4.94108005 49.24273064 -4.94435895 43.56949296 -4.95034981 37.89620972 C-4.95395489 33.55037069 -4.95281708 29.20454297 -4.95022202 24.85870361 C-4.9495526 22.76621495 -4.95038168 20.67372528 -4.95270157 18.58123779 C-4.95522723 15.66220359 -4.95138873 12.74324713 -4.94580078 9.82421875 C-4.94782501 8.95041565 -4.94984924 8.07661255 -4.95193481 7.17633057 C-4.92679699 0.12606952 -4.92679699 0.12606952 0 0 Z " fill="#575050" transform="translate(14.81640625,15.90234375)"/>
<path d="M0 0 C5.41380323 -0.4886931 5.41380323 -0.4886931 7.94921875 1.625 C8.80966797 2.800625 8.80966797 2.800625 9.6875 4 C10.36296875 4.91136719 11.0384375 5.82273437 11.734375 6.76171875 C12.48203125 7.83035156 13.2296875 8.89898437 14 10 C14.42474609 10.60537598 14.84949219 11.21075195 15.28710938 11.83447266 C19.46354695 17.80533201 23.58138455 23.81493113 27.5625 29.91796875 C27.96412354 30.52342529 28.36574707 31.12888184 28.77954102 31.75268555 C29.87217869 33.40143271 30.95024189 35.05981182 32.02734375 36.71875 C32.67832031 37.4715625 33.32929687 38.224375 34 39 C35.32 39 36.64 39 38 39 C39.55994785 37.52051824 39.55994785 37.52051824 40.8125 35.44140625 C41.32506348 34.67054687 41.83762695 33.8996875 42.36572266 33.10546875 C42.90503418 32.26628906 43.4443457 31.42710938 44 30.5625 C45.15246118 28.82343311 46.30613489 27.08516923 47.4609375 25.34765625 C48.04584961 24.45965332 48.63076172 23.57165039 49.23339844 22.65673828 C51.96083044 18.55503636 54.78464265 14.52398641 57.625 10.5 C58.12128906 9.7891626 58.61757812 9.0783252 59.12890625 8.34594727 C59.59425781 7.68522217 60.05960938 7.02449707 60.5390625 6.34375 C60.94334473 5.76818359 61.34762695 5.19261719 61.76416016 4.59960938 C65.23216012 0.11080342 65.23216012 0.11080342 68.36010742 -0.34057617 C69.26607666 -0.32486572 70.1720459 -0.30915527 71.10546875 -0.29296875 C72.08837891 -0.28330078 73.07128906 -0.27363281 74.08398438 -0.26367188 C75.10814453 -0.23853516 76.13230469 -0.21339844 77.1875 -0.1875 C78.22326172 -0.17396484 79.25902344 -0.16042969 80.32617188 -0.14648438 C82.88463699 -0.11111389 85.4420578 -0.06175544 88 0 C88 0.66 88 1.32 88 2 C76.615 2.495 76.615 2.495 65 3 C64.34 4.65 63.68 6.3 63 8 C61.86181641 9.85839844 61.86181641 9.85839844 60.6015625 11.609375 C60.12799316 12.27396729 59.65442383 12.93855957 59.16650391 13.62329102 C58.40345947 14.67601196 58.40345947 14.67601196 57.625 15.75 C56.54077235 17.25326163 55.45746705 18.75718886 54.375 20.26171875 C53.818125 21.03563965 53.26125 21.80956055 52.6875 22.60693359 C50.99463796 25.00760398 49.36600704 27.44159338 47.75 29.89453125 C47.22583496 30.67666992 46.70166992 31.45880859 46.16162109 32.26464844 C45.15382823 33.77169426 44.16131824 35.28909735 43.18603516 36.81738281 C39.83735363 41.75905825 39.83735363 41.75905825 35.97265625 42.87109375 C31.76114977 41.63697293 30.12827333 39.00501268 27.8125 35.5 C27.34690674 34.830896 26.88131348 34.16179199 26.40161133 33.47241211 C24.91510929 31.32751302 23.45732705 29.16480009 22 27 C21.02011735 25.57292042 20.0383647 24.14712293 19.0546875 22.72265625 C17.18072019 20.00456522 15.30907292 17.28492473 13.44140625 14.5625 C13.02004395 13.94890625 12.59868164 13.3353125 12.16455078 12.703125 C11.15303725 11.22381297 10.15176388 9.73750903 9.15234375 8.25 C6.39824918 4.17684929 6.39824918 4.17684929 2.125 2 C1.42375 2 0.7225 2 0 2 C0 1.34 0 0.68 0 0 Z " fill="#6A565C" transform="translate(28,16)"/>
<path d="M0 0 C4 4.75 4 4.75 4 7 C4.66 7 5.32 7 6 7 C6.33 6.34 6.66 5.68 7 5 C7.33 5.99 7.66 6.98 8 8 C6.02 8.99 6.02 8.99 4 10 C0.06153846 5.69230769 0.06153846 5.69230769 -0.25 2.1875 C-0.1675 1.465625 -0.085 0.74375 0 0 Z " fill="#6D6C6D" transform="translate(59,93)"/>
<path d="M0 0 C2.3125 -0.3125 2.3125 -0.3125 5 0 C6.8125 2.5 6.8125 2.5 8 5 C7.01 5.495 7.01 5.495 6 6 C5.34 5.01 4.68 4.02 4 3 C1.43717258 2.27034634 1.43717258 2.27034634 -1 2 C-0.67 1.34 -0.34 0.68 0 0 Z " fill="#67575C" transform="translate(35,63)"/>
<path d="M0 0 C1.65 0 3.3 0 5 0 C5 2.31 5 4.62 5 7 C2.65941363 4.87219421 1.29299694 2.88437779 0 0 Z " fill="#977FB5" transform="translate(42,66)"/>
</svg>
